<?xml version="1.0" standalone="no"?>
<!DOCTYPE svg PUBLIC "-//W3C//DTD SVG 20010904//EN"
 "http://www.w3.org/TR/2001/REC-SVG-20010904/DTD/svg10.dtd">
<svg version="1.0" xmlns="http://www.w3.org/2000/svg"
 width="100.000000pt" height="100.000000pt" viewBox="0 0 100.000000 100.000000"
 preserveAspectRatio="xMidYMid meet">
<metadata>
Created by potrace 1.14, written by Peter Selinger 2001-2017
</metadata>
<g transform="translate(0.000000,100.000000) scale(0.100000,-0.100000)"
fill="#000000" stroke="none">
<path d="M320 882 c-123 -72 -192 -119 -206 -140 -19 -28 -22 -49 -26 -223 -3
-106 -1 -207 3 -224 13 -47 48 -74 239 -184 l175 -100 5 147 5 147 -167 95
c-92 52 -168 97 -168 100 0 3 75 47 165 98 l165 93 0 150 c0 82 -1 149 -2 149
-2 0 -86 -49 -188 -108z"/>
<path d="M670 887 c0 -3 12 -12 26 -22 15 -9 23 -12 20 -6 -7 11 -46 35 -46
28z"/>
<path d="M740 841 c0 -5 6 -11 13 -14 6 -2 9 -8 5 -12 -4 -4 -13 -3 -20 3 -10
8 -13 4 -13 -16 -1 -15 4 -30 10 -34 6 -5 6 -8 -2 -8 -16 0 -17 -44 -2 -72 10
-18 9 -20 -7 -14 -10 4 -15 4 -11 0 4 -4 2 -13 -4 -20 -7 -9 -5 -14 10 -19 12
-3 21 -13 21 -21 0 -8 5 -14 12 -14 6 0 8 -3 5 -7 -4 -3 -16 2 -27 12 -18 17
-20 17 -14 2 5 -14 2 -16 -12 -11 -11 4 -16 4 -12 -1 4 -4 18 -8 30 -9 13 -1
22 -7 21 -14 -2 -7 4 -9 14 -5 10 4 14 2 10 -4 -7 -10 53 -53 73 -53 5 0 27
19 50 42 37 39 40 46 40 96 0 37 -6 65 -20 88 -23 37 -86 78 -107 70 -8 -3
-12 -2 -9 2 3 5 -8 16 -25 26 -16 9 -29 13 -29 7z"/>
</g>
</svg>
